<svg viewBox="0 0 333.42 69.06" xmlns="http://www.w3.org/2000/svg"><g fill="#fff"><path d="m90.78 20.51h18.56v5.49c-1.33.06-2.67 0-4 0h-8.24a22.47 22.47 0 0 0 -.1 5.87h10.88v5.63h-10.95v6h12.42v5.5c-.85.22-16.91.29-18.57.06z"/><path d="m136.69 21.74v5.7l-1.37-.54a13.54 13.54 0 0 0 -7.14-1 8.14 8.14 0 0 0 -7 7.92 12.32 12.32 0 0 0 .34 3.78 8.14 8.14 0 0 0 7.57 6.1 15.83 15.83 0 0 0 6.81-1l.78-.3a1 1 0 0 1 .25 0v5.62a11.2 11.2 0 0 1 -4.23 1.27 17.73 17.73 0 0 1 -8.84-.81 13.2 13.2 0 0 1 -8.46-9.48c-1.22-4.93-.56-9.6 2.68-13.66a13.76 13.76 0 0 1 10.83-5.26 15.63 15.63 0 0 1 6.79 1.19c.3.13.64.3.99.47z"/><path d="m156.59 49.54a14.26 14.26 0 0 1 -14.59-14.54 14.72 14.72 0 0 1 3-9.47 14 14 0 0 1 11-5.43 14.39 14.39 0 0 1 8.22 2.08 13.64 13.64 0 0 1 6.38 8.82 15.2 15.2 0 0 1 -1.89 12 13.68 13.68 0 0 1 -11 6.42zm8.22-14.79a10.62 10.62 0 0 0 -1-4.28 8.1 8.1 0 0 0 -13.14-2.23 9.91 9.91 0 0 0 -1.23 11.44 8.08 8.08 0 0 0 13.89.3 9.93 9.93 0 0 0 1.48-5.23z"/><path d="m177.78 49.17v-28.62a6.75 6.75 0 0 1 .83-.09c3.2 0 6.39-.05 9.58.08a14.26 14.26 0 0 1 10.16 4.39 13.07 13.07 0 0 1 3.45 7.07 15.48 15.48 0 0 1 -.92 8.77 13.24 13.24 0 0 1 -10 7.92 23.86 23.86 0 0 1 -4.39.45c-2.47.07-5 0-7.43 0zm6.05-5.62a31.13 31.13 0 0 0 5.65-.25 7.33 7.33 0 0 0 4.27-2.66 9.12 9.12 0 0 0 1.49-9 7.69 7.69 0 0 0 -6.7-5.53 30.59 30.59 0 0 0 -3.95-.05 4.64 4.64 0 0 0 -.76.12z"/><path d="m227.82 26.07h-12.5v5.83c1.23.07 2.46 0 3.68 0s2.39 0 3.59 0h3.76v5.56h-11v6h12.34a19.9 19.9 0 0 1 .14 5.58h-18.45c-.26-.81-.37-26-.12-28.45.86-.23 17.08-.29 18.56-.05z"/><path d="m251.31 21.87v5.95l-2.13-.94a13.86 13.86 0 0 0 -4.73-1.2 8.54 8.54 0 0 0 -2 .12 2.28 2.28 0 0 0 -2 1.83 2.25 2.25 0 0 0 1 2.4 19.42 19.42 0 0 0 2.55 1.49c1.07.53 2.19 1 3.27 1.49a12.23 12.23 0 0 1 1.45.82c3.25 2.08 4.47 5 3.81 9.07a7.93 7.93 0 0 1 -6.53 6.3 18.18 18.18 0 0 1 -11.36-1.53v-6l1.19.52a16.34 16.34 0 0 0 7.39 1.72 6.05 6.05 0 0 0 1.64-.27 2.5 2.5 0 0 0 1.1-4.27 9.89 9.89 0 0 0 -2.38-1.56c-1.09-.57-2.26-1-3.36-1.55a19 19 0 0 1 -2.33-1.26 7.74 7.74 0 0 1 -3.45-7.76 7.62 7.62 0 0 1 5.56-6.59 13.58 13.58 0 0 1 7.21-.25 13 13 0 0 1 4.1 1.47z"/><path d="m265.87 49.11h-6v-28.43a22.86 22.86 0 0 1 6-.09z"/><path d="m296.18 21.73v5.67c-1.59-.44-3.1-.94-4.65-1.26a12 12 0 0 0 -6.61.3 7.77 7.77 0 0 0 -5.27 5.85 10.57 10.57 0 0 0 .25 6 7.6 7.6 0 0 0 4.21 4.65 11.49 11.49 0 0 0 7.81.34v-8.8h5.61v12.62a6.46 6.46 0 0 1 -.75.44 19.51 19.51 0 0 1 -13.18 1.46 13.8 13.8 0 0 1 -10.49-13.23 15.89 15.89 0 0 1 1.39-7.55 14 14 0 0 1 10.61-7.88 18.88 18.88 0 0 1 9.34.7c.6.19 1.17.46 1.73.69z"/><path d="m329.08 49.22h-2.83c-4.85-5.54-9.61-11-14.38-16.46l-.25.07c-.08 5.4 0 10.81-.05 16.27h-5.76v-28.55h2.86l14.25 16.23.22-.09v-16.22c2.06 0 4-.09 5.94.06z"/><path d="m51 37.57a15.18 15.18 0 0 1 -.21 2 10.26 10.26 0 0 1 -6.08 7.22 14.72 14.72 0 0 1 -4.84 1.25c-.52.05-1 .12-1.53.19-.62 1.12-.63 1.33-.22 5.11l-1.41.47-1.4.44a10.34 10.34 0 0 1 -.62-4.14 13.88 13.88 0 0 1 1.61-6.54 10.36 10.36 0 0 1 4.92-4.71 17.18 17.18 0 0 1 7.9-1.57c.53.04 1.07.17 1.88.28z"/><path d="m22.47 34.94c2.88-.45 5.53-.59 8 .67 2.71 1.37 3.79 3.91 4.62 6.73a5.23 5.23 0 0 1 -.85.18 16.1 16.1 0 0 1 -6.61-.72 7.82 7.82 0 0 1 -4.9-5.18 12.81 12.81 0 0 1 -.26-1.68z"/><path d="m37.5 37.84c-3-2.61-5.58-5.38-7-9a11.45 11.45 0 0 1 2.88-12.5 1.35 1.35 0 0 1 1.53.33 25.66 25.66 0 0 1 4.71 5.05 10.5 10.5 0 0 1 1.11 10.54 23.89 23.89 0 0 1 -1.37 2.74c-.54.94-1.17 1.81-1.86 2.84z"/><path d="m63.31 23.48-7.07-4.12 2.07-1.28a27 27 0 0 0 -8.57-7.35 27.82 27.82 0 0 0 -10.93-3.29l.19-3.38a31.12 31.12 0 0 1 22.34 12.31l2-1.07a37.67 37.67 0 0 1 -.03 8.18z"/><path d="m63.67 54.28-8.07 2.59c.48-2.78 1.12-5.4 1.74-8.16l1.81 1.58a26.93 26.93 0 0 0 4.13-21.79l3.28-.8a30.11 30.11 0 0 1 .3 13 31.1 31.1 0 0 1 -5.19 12.06z"/><path d="m26.2 66.5c-1.67-2.33-3.2-4.5-4.89-6.82l8.34-.82-.92 2.2a26.5 26.5 0 0 0 11.35.94 28 28 0 0 0 10.73-3.73l1.79 2.87c-8 4.7-16.44 5.58-25.34 3.14z"/><path d="m5.57 35.16-2.47-.38 5-6.72 3.34 7.63-2.44-.14a26.39 26.39 0 0 0 2.65 11.06 27.72 27.72 0 0 0 6.89 9l-2.23 2.56a31 31 0 0 1 -10.74-23.01z"/><path d="m26.63 5.58-.45-2.46 8 2.64-6.23 5.53-.65-2.35a27.67 27.67 0 0 0 -16.2 15.23c-.55-.21-1.06-.39-1.56-.6s-.95-.41-1.54-.67a30.55 30.55 0 0 1 7.44-10.68 31.36 31.36 0 0 1 11.19-6.64z"/></g></svg>