<svg enable-background="new 0 0 2181.2 1363.8" viewBox="0 0 2181.2 1363.8" xmlns="http://www.w3.org/2000/svg"><g style="fill:none;stroke:#999;stroke-width:1.254;stroke-linecap:round;stroke-linejoin:round;stroke-miterlimit:10;stroke-dasharray:0 10.0317"><path d="m.6 68.8h2180"/><path d="m.6 136.9h2180"/><path d="m.6 205h2180"/><path d="m.6 273.1h2180"/><path d="m.6 341.3h2180"/><path d="m.6 409.4h2180"/><path d="m.6 477.5h2180"/><path d="m.6 545.6h2180"/><path d="m.6 613.8h2180"/><path d="m.6 681.9h2180"/><path d="m.6 750h2180"/><path d="m.6 818.1h2180"/><path d="m.6 886.3h2180"/><path d="m.6 954.4h2180"/><path d="m.6 1022.5h2180"/><path d="m.6 1090.6h2180"/><path d="m.6 1158.8h2180"/><path d="m.6 1226.9h2180"/><path d="m.6 1295h2180"/><path d="m.6 1363h2180"/><path d="m68.8.6v1362.5"/><path d="m136.9.6v1362.5"/><path d="m205 .6v1362.5"/><path d="m273.1.6v1362.5"/><path d="m341.2.6v1362.5"/><path d="m409.4.6v1362.5"/><path d="m477.5.6v1362.5"/><path d="m545.6.6v1362.5"/><path d="m613.8.6v1362.5"/><path d="m681.9.6v1362.5"/><path d="m750 .6v1362.5"/><path d="m818.1.6v1362.5"/><path d="m886.2.6v1362.5"/><path d="m954.4.6v1362.5"/><path d="m1022.5.6v1362.5"/><path d="m1090.6.6v1362.5"/><path d="m1158.8.6v1362.5"/><path d="m1226.9.6v1362.5"/><path d="m1295 .6v1362.5"/><path d="m1363.1.6v1362.5"/><path d="m1431.2.6v1362.5"/><path d="m1499.4.6v1362.5"/><path d="m1567.5.6v1362.5"/><path d="m1635.6.6v1362.5"/><path d="m1703.8.6v1362.5"/><path d="m1771.9.6v1362.5"/><path d="m1840 .6v1362.5"/><path d="m1908.1.6v1362.5"/><path d="m1976.2.6v1362.5"/><path d="m2044.4.6v1362.5"/><path d="m2112.5.6v1362.5"/></g></svg>