<svg enable-background="new 0 0 2181.25 1363.75" viewBox="0 0 2181.25 1363.75" xmlns="http://www.w3.org/2000/svg"><g style="fill:none;stroke:#999;stroke-width:1.254;stroke-linecap:round;stroke-linejoin:round;stroke-miterlimit:10;stroke-dasharray:0 10.0317"><path d="m.63 68.75h2180"/><path d="m.63 136.88h2180"/><path d="m.63 205h2180"/><path d="m.63 273.13h2180"/><path d="m.63 341.25h2180"/><path d="m.63 409.38h2180"/><path d="m.63 477.5h2180"/><path d="m.63 545.63h2180"/><path d="m.63 613.75h2180"/><path d="m.63 681.88h2180"/><path d="m.63 750h2180"/><path d="m.63 818.13h2180"/><path d="m.63 886.25h2180"/><path d="m.63 954.38h2180"/><path d="m.63 1022.5h2180"/><path d="m.63 1090.63h2180"/><path d="m.63 1158.75h2180"/><path d="m.63 1226.88h2180"/><path d="m.63 1295h2180"/><path d="m68.75.63v1362.5"/><path d="m136.88.63v1362.5"/><path d="m205 .63v1362.5"/><path d="m273.13.63v1362.5"/><path d="m341.25.63v1362.5"/><path d="m409.38.63v1362.5"/><path d="m477.5.63v1362.5"/><path d="m545.63.63v1362.5"/><path d="m613.75.63v1362.5"/><path d="m681.88.63v1362.5"/><path d="m750 .63v1362.5"/><path d="m818.13.63v1362.5"/><path d="m886.25.63v1362.5"/><path d="m954.38.63v1362.5"/><path d="m1022.5.63v1362.5"/><path d="m1090.63.63v1362.5"/><path d="m1158.75.63v1362.5"/><path d="m1226.88.63v1362.5"/><path d="m1295 .63v1362.5"/><path d="m1363.13.63v1362.5"/><path d="m1431.25.63v1362.5"/><path d="m1499.38.63v1362.5"/><path d="m1567.5.63v1362.5"/><path d="m1635.63.63v1362.5"/><path d="m1703.75.63v1362.5"/><path d="m1771.88.63v1362.5"/><path d="m1840 .63v1362.5"/><path d="m1908.13.63v1362.5"/><path d="m1976.25.63v1362.5"/><path d="m2044.38.63v1362.5"/><path d="m2112.5.63v1362.5"/></g></svg>