<svg enable-background="new 0 0 34.02 34" viewBox="0 0 34.02 34" xmlns="http://www.w3.org/2000/svg"><path d="m17.17 29.24c1.43-.09 2.51-1.34 2.51-2.78v-3.73c0-2.59 1.38-4.99 3.62-6.28l3.32-1.92c1.29-.75 1.73-2.41.96-3.69-.74-1.24-2.46-1.62-3.71-.89l-3.23 1.87c-2.24 1.3-5 1.3-7.25 0l-3.32-1.92c-1.29-.75-2.94-.29-3.67 1.02-.71 1.27-.17 2.94 1.08 3.67l3.23 1.87c2.24 1.3 3.62 3.69 3.62 6.28v3.83c.01 1.53 1.29 2.76 2.84 2.67z" fill="#fff"/><ellipse cx="17.01" cy="17" fill="none" rx="17" ry="17.01" transform="matrix(.5 -.866 .866 .5 -6.2189 23.2308)"/></svg>