<svg enable-background="new 0 0 150 100" viewBox="0 0 150 100" xmlns="http://www.w3.org/2000/svg"><path d="m0 0h50v50h-50z" fill="#3c3c3c"/><ellipse cx="25" cy="25" fill="none" rx="17" ry="17"/><path d="m36.8 23-5.2-1.3 3.5-1.4-2.9 4.6c-.5.9-1.7 1.1-2.5.6-.7-.4-1-1.3-.8-2l1.3-5.3c.3-1.2 1.6-2 2.8-1.7.2.1.5.2.7.3l4.6 2.9c.8.5 1.1 1.7.5 2.5-.5.7-1.3 1-2 .8z" fill="#fff"/><path d="m34.6 18.5c1.3 1.8 2.1 4 2.2 6.3s-.5 4.6-1.6 6.5c-1.2 2-2.9 3.6-5 4.7-2.1 1-4.4 1.5-6.8 1.2-1.5-.2-2.5-1.5-2.4-3s1.5-2.5 3-2.4h.1c1.3.2 2.7 0 3.9-.5s2.3-1.4 3.1-2.6c.8-1.1 1.2-2.5 1.2-3.9s-.4-2.8-1.1-4.1c-.6-1-.3-2.2.7-2.9.9-.5 2.1-.2 2.7.7z" fill="#fff"/><path d="m13.2 27 5.2 1.3-3.4 1.5 2.9-4.6c.5-.9 1.7-1.1 2.5-.6.7.4 1 1.3.8 2l-1.3 5.3c-.3 1.2-1.6 2-2.8 1.7-.2-.1-.5-.2-.7-.3l-4.6-2.9c-.9-.5-1.1-1.7-.6-2.5s1.3-1.1 2-.9z" fill="#fff"/><path d="m15.4 31.5c-1.3-1.8-2.1-4-2.2-6.3s.5-4.6 1.6-6.5c1.2-2 2.9-3.6 5-4.7s4.4-1.5 6.8-1.2c1.5.2 2.5 1.5 2.4 2.9s-1.5 2.5-3 2.4h-.1c-1.3-.2-2.7 0-3.9.5s-2.3 1.4-3.1 2.6c-.8 1.1-1.2 2.5-1.2 3.9s.4 2.8 1.1 4.1c.6 1 .3 2.2-.7 2.8-.9.7-2.1.4-2.7-.5z" fill="#fff"/><path d="m50 0h50v50h-50z" fill="#3c3c3c"/><path d="m87.2 25c0-1.5-1.3-2.6-2.8-2.6h-2.6c-2.3 0-4.1-1.9-4.1-4.1v-2.7c0-1.5-1.2-2.7-2.7-2.7-1.4 0-2.6 1.3-2.6 2.8v2.6c0 2.3-1.8 4.1-4.1 4.1h-2.7c-1.5 0-2.7 1.2-2.7 2.7s1.3 2.6 2.8 2.6h2.6c2.3 0 4.1 1.9 4.1 4.1v2.7c0 1.5 1.2 2.7 2.7 2.7 1.4 0 2.6-1.3 2.6-2.8v-2.6c0-2.3 1.8-4.1 4.1-4.1h2.7c1.6 0 2.7-1.2 2.7-2.7z" fill="#fff"/><ellipse cx="75" cy="25" fill="none" rx="17" ry="17"/><path d="m100 0h50v50h-50z" fill="#3c3c3c"/><circle cx="125" cy="25" fill="none" r="17"/><path d="m136.6 21.3c-.4-1.4-2-2.2-3.4-1.8l-3.9 1.3c-.8.3-1.7-.4-1.7-1.2v-4c0-1.4-1.2-2.8-2.6-2.8-1.5 0-2.7 1.2-2.7 2.7v4.1c0 .9-.9 1.5-1.7 1.2l-3.8-1.2c-1.4-.4-2.9.2-3.4 1.5-.6 1.5.2 3 1.7 3.5l3.9 1.3c.8.3 1.2 1.3.7 2l-2.3 3.2c-.8 1.2-.7 2.8.4 3.7 1.2 1 3 .8 3.9-.5l2.3-3.3c.5-.7 1.6-.7 2.1 0l2.4 3.2c.9 1.2 2.6 1.5 3.8.7 1.2-.9 1.5-2.5.6-3.8l-2.4-3.3c-.5-.7-.2-1.7.6-2l3.8-1.2c1.3-.4 2.2-2 1.7-3.3z" fill="#fff"/><ellipse cx="25" cy="75" fill="none" rx="17" ry="17"/><g fill="#fff"><path d="m36.8 73-5.2-1.3 3.5-1.4-2.9 4.6c-.5.9-1.7 1.1-2.5.6-.7-.4-1-1.3-.8-2l1.3-5.3c.3-1.2 1.6-2 2.8-1.7.2.1.5.2.7.3l4.6 2.9c.8.6 1.1 1.7.5 2.5-.5.7-1.3 1-2 .8z"/><path d="m34.6 68.5c1.3 1.8 2.1 4 2.2 6.3s-.5 4.6-1.6 6.5c-1.2 2-2.9 3.6-5 4.7-2.1 1-4.4 1.5-6.8 1.2-1.5-.2-2.5-1.5-2.4-2.9s1.5-2.5 3-2.4h.1c1.3.2 2.7 0 3.9-.5s2.3-1.4 3.1-2.6 1.2-2.5 1.2-3.9-.4-2.8-1.1-4.1c-.6-1-.3-2.2.7-2.9.9-.6 2.1-.3 2.7.6z"/><path d="m13.2 77 5.2 1.3-3.4 1.5 2.9-4.6c.5-.9 1.7-1.1 2.5-.6.7.4 1 1.3.8 2l-1.3 5.3c-.3 1.2-1.6 2-2.8 1.7-.2-.1-.5-.2-.7-.3l-4.6-2.9c-.9-.6-1.1-1.7-.6-2.5s1.3-1.1 2-.9z"/><path d="m15.4 81.5c-1.3-1.8-2.1-4-2.2-6.3s.5-4.6 1.6-6.5c1.2-2 2.9-3.6 5-4.7s4.4-1.5 6.8-1.2c1.5.2 2.5 1.5 2.4 2.9s-1.5 2.5-3 2.4h-.1c-1.3-.2-2.7-.1-3.9.5-1.2.5-2.3 1.4-3.1 2.6s-1.2 2.5-1.2 3.9.4 2.8 1.1 4.1c.6 1 .3 2.2-.7 2.8-.9.7-2.1.4-2.7-.5z"/><path d="m87.2 75c0-1.5-1.3-2.6-2.8-2.6h-2.6c-2.3 0-4.1-1.9-4.1-4.1v-2.7c0-1.5-1.2-2.7-2.7-2.7-1.4 0-2.6 1.3-2.6 2.8v2.6c0 2.3-1.8 4.1-4.1 4.1h-2.7c-1.5 0-2.7 1.2-2.7 2.7 0 1.4 1.3 2.6 2.8 2.6h2.6c2.3 0 4.1 1.8 4.1 4.1v2.7c0 1.5 1.2 2.7 2.7 2.7 1.4 0 2.6-1.3 2.6-2.8v-2.7c0-2.3 1.8-4.1 4.1-4.1h2.7c1.6.1 2.7-1.2 2.7-2.6z"/></g><ellipse cx="75" cy="75" fill="none" rx="17" ry="17"/><circle cx="125" cy="75" fill="none" r="17"/><path d="m136.6 71.3c-.4-1.4-2-2.2-3.4-1.8l-3.9 1.3c-.8.3-1.7-.4-1.7-1.2v-4c0-1.4-1.2-2.8-2.6-2.8-1.5 0-2.7 1.2-2.7 2.7v4.1c0 .9-.9 1.5-1.7 1.2l-3.8-1.2c-1.4-.4-2.9.2-3.4 1.5-.6 1.5.2 3.1 1.7 3.5l3.9 1.3c.8.3 1.2 1.3.7 2l-2.3 3.2c-.8 1.2-.7 2.8.4 3.7 1.2 1 3 .8 3.9-.5l2.3-3.3c.5-.7 1.6-.7 2.1 0l2.4 3.2c.9 1.2 2.6 1.5 3.8.7 1.2-.9 1.5-2.5.6-3.8l-2.4-3.3c-.5-.7-.2-1.7.6-2l3.8-1.2c1.3-.4 2.2-1.9 1.7-3.3z" fill="#fff"/></svg>