<svg enable-background="new 0 0 662.75 75.45" viewBox="0 0 662.75 75.45" xmlns="http://www.w3.org/2000/svg"><g fill="#fff"><path d="m356.57 14.67h29.32v8.96h-19.57v11.79h17.2v8.96h-17.2v16.41h-9.75z"/><path d="m430.31 37.73c0-8.43-5.67-14.5-13.31-14.5s-13.31 6.06-13.31 14.5c0 8.36 5.67 14.49 13.31 14.49 7.65 0 13.31-6.13 13.31-14.49m-36.63 0c0-13.71 10.15-23.72 23.32-23.72 13.24 0 23.32 10.02 23.32 23.72s-10.08 23.72-23.32 23.72c-13.17 0-23.32-10.02-23.32-23.72"/><path d="m461.64 23.63v12.65h7.51c3.95 0 6.46-2.63 6.46-6.32 0-3.68-2.5-6.32-6.46-6.32h-7.51zm-9.75-8.96h16.93c9.75 0 16.67 6.26 16.67 15.15 0 5.73-3.36 10.67-8.63 12.98l10.81 17.99h-11.07l-9.03-15.55h-5.93v15.55h-9.75z"/><path d="m518.06 14.01c4.55 0 8.43.86 11.93 2.77v9.22c-3.82-1.92-7.31-2.77-11.2-2.77-7.84 0-13.9 5.47-13.9 14.49 0 9.16 6.12 14.49 14.49 14.49 3.62 0 6.92-.59 10.94-2.37v9.23c-2.96 1.51-6.85 2.37-11.86 2.37-13.57 0-23.59-9.69-23.59-23.72 0-13.63 10.21-23.71 23.19-23.71"/><path d="m542.33 14.67h9.75v37.16h20.02v8.96h-29.77z"/><path d="m604.68 45.7-5.86-14.83-5.87 14.83zm-27.94 15.09 19.9-46.12h4.61l19.9 46.12h-10.55l-2.7-6.79h-18.25l-2.63 6.79z"/><path d="m627.56 14.67v8.96h21.15l-21.81 32.54v4.62h35.85v-8.96h-21.81l21.48-32.55v-4.61z"/><path d="m328.22 0h5.54v75.45h-5.54z"/><path d="m16.16 51.06h-4.62v-26.42h4.55c8.55 0 13.1 4.7 13.1 13.13-.01 9.21-4.2 13.29-13.03 13.29m49.78-26.42v-10.34h-25.65v19.31c-.74-5.63-2.99-10.18-6.57-13.52-4.93-4.58-10.14-5.59-17.64-5.59h-16.08v46.9h17.72c6.61 0 11-.97 16.09-5.83 3.54-3.46 5.75-7.89 6.49-13.1v18.61h25.65v-10.06h-14.3v-8.74h12.39v-10.03h-12.4v-7.62h14.3z"/><path d="m118.86 44.53h-5.99l5.99-10.69zm-1.08-30.23-16.98 29.96c-.35.62-3.73 5.75-10.57 6.22-6.76.31-12.51-6.14-12.36-13.06.16-6.88 5.29-12.4 12.12-12.51 5.75.12 10.03 4.62 10.03 4.62 1.2 1.01 1.98 1.86 2.95 3.27l6.18-10.88c-1.09-1.16-1.59-1.67-2.95-2.76-3.54-3.19-8.7-5.67-15.97-5.95-6.96-.15-13.99 2.76-19.43 9.79-3.34 4.47-4.7 8.47-4.86 14.42.12 6.91 2.56 12.55 6.18 16.63 6.26 6.53 13.83 8.12 17.88 8.12 5.75-.19 10.03-1.63 14.03-4.31 1.24-.85 2.6-2.06 4.04-3.54h10.76v6.76h11.11v-46.78z"/><path d="m132.11 25.38h8.76v35.99h11.5v-35.99h8.92v-10.88h-29.18z"/><path d="m186.68 32.28h-11.85v-17.78h-11.45v46.87h11.45v-17.92h11.85v17.92h11.6v-46.87h-11.6z"/><path d="m243.25 50.67c-6.49 0-12.36-5.71-12.36-13.06 0-6.88 5.48-12.39 12.51-12.39 6.6 0 12.12 5.52 12.12 12.39 0 7.62-5.51 13.06-12.27 13.06m50.74-36.18v26.03l-17.29-26.03h-10.45v15.81c-1.13-3.57-3.19-6.88-6.1-9.75-4.58-4.47-10.49-6.92-16.79-6.92-6.76 0-12.55 2.33-17.18 6.84-4.7 4.62-7.19 10.49-7.19 16.94 0 5.17 1.28 9.67 3.69 13.6h-8.82v-36.52h-11.42v46.86h24.91v-4.9c4.35 3.81 9.75 5.79 15.89 5.79 6.57 0 12.82-2.6 17.37-7.34 2.64-2.72 4.55-5.99 5.63-9.52v15.97h11.58v-26.11l17.56 26.11h10.1v-46.86z"/></g></svg>