<svg enable-background="new 0 0 2180.91 275.25" viewBox="0 0 2180.91 275.25" xmlns="http://www.w3.org/2000/svg"><g fill="none" stroke="#fff" stroke-miterlimit="10"><path d="m178.69.5v187.3c-.25 28.12-7.99 49.64-23.23 64.57s-37.1 22.39-65.59 22.39c-28.99 0-51.13-7.55-66.43-22.67-15.29-15.12-22.94-36.98-22.94-65.6v-185.99h55v186.18c0 15.36 2.48 26.32 7.43 32.89s13.94 9.85 26.94 9.85c13.01 0 21.93-3.25 26.76-9.76 4.83-6.5 7.31-17.19 7.43-32.05v-187.11z"/><path d="m599.55 271.04h-54.63l-79.9-177.45v177.45h-54.63v-270.54h54.63l80.08 177.63v-177.63h54.44v270.54z"/><path d="m833.67 271.04v-270.54h71.54c31.59 0 56.76 10.03 75.53 30.1s28.34 47.57 28.71 82.5v43.85c0 35.55-9.38 63.45-28.15 83.71s-44.63 30.38-77.58 30.38zm54.62-225.02v179.68h16.35c18.21 0 31.03-4.8 38.46-14.4s11.33-26.17 11.71-49.7v-47.01c0-25.27-3.53-42.89-10.59-52.86s-19.08-15.2-36.05-15.7h-19.88z"/><path d="m1312.5 122.02 40.69-121.52h59.46l-72.47 172.43v98.11h-55.37v-98.11l-72.65-172.43h59.46z"/><path d="m1767.36 153.98h-85.1v71.72h100.71v45.34h-155.34v-270.54h154.96v45.52h-100.34v63.92h85.1v44.04z"/><path d="m2004.63 271.04v-270.54h71.54c31.59 0 56.76 10.03 75.53 30.1s28.34 47.57 28.71 82.5v43.85c0 35.55-9.38 63.45-28.15 83.71s-44.63 30.38-77.58 30.38zm54.63-225.02v179.68h16.35c18.21 0 31.03-4.8 38.46-14.4s11.33-26.17 11.71-49.7v-47.01c0-25.27-3.53-42.89-10.59-52.86s-19.08-15.2-36.05-15.7h-19.88z"/></g></svg>